<svg id="Camada_1" data-name="Camada 1" xmlns="http://www.w3.org/2000/svg" viewBox="0 0 572.08 433.73"><defs><style>.cls-1,.cls-2{font-size:289.79px;font-family:Montserrat-BlackItalic, Montserrat Black;}.cls-1,.cls-2,.cls-3{font-style:italic;}.cls-2,.cls-9{fill:#03420c;}.cls-2{stroke:#03420c;stroke-width:3px;}.cls-10,.cls-2{stroke-miterlimit:10;}.cls-3{font-size:37.43px;font-family:Montserrat-ExtraBoldItalic, Montserrat ExtraBold;}.cls-4{letter-spacing:-0.02em;}.cls-5{letter-spacing:0em;}.cls-6{letter-spacing:-0.01em;}.cls-7{letter-spacing:-0.01em;}.cls-8{letter-spacing:0em;}.cls-10{fill:none;stroke:#000;stroke-width:4px;}</style></defs><title>logo jv branco</title><text class="cls-1" transform="translate(88.01 355.38)">JV </text><text class="cls-2" transform="translate(79.73 338.82)">JV </text><text class="cls-3" x="-15.92" y="-67.36"><tspan x="41.64" y="411.31">Ma</tspan><tspan class="cls-4" x="103.36" y="411.31">t</tspan><tspan x="119.5" y="411.31">e</tspan><tspan class="cls-5" x="143.38" y="411.31">r</tspan><tspan x="159.89" y="411.31">iais pa</tspan><tspan class="cls-6" x="292.67" y="411.31">r</tspan><tspan x="308.99" y="411.31">a </tspan><tspan class="cls-7" x="345.9" y="411.31">c</tspan><tspan class="cls-8" x="368.21" y="411.31">onstru</tspan><tspan class="cls-7" x="498.86" y="411.31">ç</tspan><tspan x="521.17" y="411.31">ão</tspan></text><path class="cls-9" d="M24.84,498l34.11-106.3,53.93-168.09,12.34-38.46a4.54,4.54,0,0,0-4.34-5.7h-59l2.27,8.39,88.7-38.1L293.22,89.43,325.65,75.5h-4.54l64.22,37.11,101.92,58.9,23.58,13.63a4.54,4.54,0,0,0,6.77-3.89V138.46l-4.5,4.5h41.29l-4.5-4.5V183c0,5.79,9,5.8,9,0V138.46a4.57,4.57,0,0,0-4.5-4.5H513.1a4.57,4.57,0,0,0-4.5,4.5v42.78l6.77-3.89-81.06-46.84L330.69,70.64c-3.12-1.8-5.87-4.21-9.58-2.91-2,.7-3.91,1.68-5.84,2.51L276.58,86.85,147.9,142.12,91.13,166.5c-10,4.31-20.27,8.29-30.14,12.95-.44.21-.9.39-1.35.58-4.28,1.84-1.87,8.39,2.27,8.39h59l-4.34-5.7L82.44,289,28.5,457.1,16.16,495.57c-1.77,5.53,6.91,7.89,8.68,2.39Z" transform="translate(-15.92 -67.36)"/><line class="cls-10" x1="41.12" y1="421.38" x2="474.29" y2="421.38"/></svg>